HIERARCHY
ROOT Hips
{
	OFFSET 0.000000 100.481300 0.000000
	CHANNELS 6 Xposition Yposition Zposition Xrotation Yrotation Zrotation 
	JOINT Spine
	{
		OFFSET -0.279200 12.230698 -2.892100
		CHANNELS 3 Xrotation Yrotation Zrotation
		JOINT Spine1
		{
			OFFSET -0.232667 10.192268 -1.242267
			CHANNELS 3 Xrotation Yrotation Zrotation
			JOINT Spine1_split
			{
				OFFSET -0.232667 10.192268 -1.242267
				CHANNELS 3 Xrotation Yrotation Zrotation
				JOINT Spine2
				{
					OFFSET -0.232667 10.192268 -1.242267
					CHANNELS 3 Xrotation Yrotation Zrotation
					JOINT Neck
					{
						OFFSET -0.418800 17.814194 8.416900
						CHANNELS 3 Xrotation Yrotation Zrotation
						JOINT Head
						{
							OFFSET 0.000000 7.031097 3.806800
							CHANNELS 3 Xrotation Yrotation Zrotation
							JOINT HeadTop_End
							{
								OFFSET 0.000000 24.646606 12.978600
								CHANNELS 3 Xrotation Yrotation Zrotation
								End Site
								{
									OFFSET 0.000000 0.000000 0.000000
								}
							}
						}
					}
					JOINT LeftShoulder
					{
						OFFSET 8.476499 7.247704 -3.868750
						CHANNELS 3 Xrotation Yrotation Zrotation
						JOINT LeftShoulder_split
						{
							OFFSET 8.476499 7.247704 -3.868750
							CHANNELS 3 Xrotation Yrotation Zrotation
							JOINT LeftArm
							{
								OFFSET 9.308998 -2.777710 0.208600
								CHANNELS 3 Xrotation Yrotation Zrotation
								JOINT LeftForeArm
								{
									OFFSET 29.972298 0.000000 0.000000
									CHANNELS 3 Xrotation Yrotation Zrotation
									JOINT LeftHand
									{
										OFFSET 26.026505 0.000000 0.000000
										CHANNELS 3 Xrotation Yrotation Zrotation
										JOINT LeftHandThumb1
										{
											OFFSET 12.240501 -7.147949 9.207150
											CHANNELS 3 Xrotation Yrotation Zrotation
											JOINT LeftHandThumb2
											{
												OFFSET 4.138618 -2.389435 2.389433
												CHANNELS 3 Xrotation Yrotation Zrotation
												JOINT LeftHandThumb3
												{
													OFFSET 2.726913 -1.574387 1.574386
													CHANNELS 3 Xrotation Yrotation Zrotation
													JOINT LeftHandThumb4
													{
														OFFSET 3.941010 -2.275345 2.275342
														CHANNELS 3 Xrotation Yrotation Zrotation
														End Site
														{
															OFFSET 0.000000 0.000000 0.000000
														}
													}
												}
											}
										}
										JOINT LeftHandIndex1
										{
											OFFSET 24.424698 -1.985611 5.953459
											CHANNELS 3 Xrotation Yrotation Zrotation
											JOINT LeftHandIndex2
											{
												OFFSET 6.426697 0.000000 0.000000
												CHANNELS 3 Xrotation Yrotation Zrotation
												JOINT LeftHandIndex3
												{
													OFFSET 5.337898 0.000000 0.000000
													CHANNELS 3 Xrotation Yrotation Zrotation
													JOINT LeftHandIndex4
													{
														OFFSET 4.409401 0.000000 0.000000
														CHANNELS 3 Xrotation Yrotation Zrotation
														End Site
														{
															OFFSET 0.000000 0.000000 0.000000
														}
													}
												}
											}
										}
										JOINT LeftHandMiddle1
										{
											OFFSET 23.810104 0.000000 0.000000
											CHANNELS 3 Xrotation Yrotation Zrotation
											JOINT LeftHandMiddle2
											{
												OFFSET 7.176498 0.000000 0.000000
												CHANNELS 3 Xrotation Yrotation Zrotation
												JOINT LeftHandMiddle3
												{
													OFFSET 6.774902 0.000000 0.000000
													CHANNELS 3 Xrotation Yrotation Zrotation
													JOINT LeftHandMiddle4
													{
														OFFSET 5.403328 0.000000 0.000000
														CHANNELS 3 Xrotation Yrotation Zrotation
														End Site
														{
															OFFSET 0.000000 0.000000 0.000000
														}
													}
												}
											}
										}
										JOINT LeftHandRing1
										{
											OFFSET 22.908401 -0.839279 -6.020567
											CHANNELS 3 Xrotation Yrotation Zrotation
											JOINT LeftHandRing2
											{
												OFFSET 6.337502 0.000000 0.000000
												CHANNELS 3 Xrotation Yrotation Zrotation
												JOINT LeftHandRing3
												{
													OFFSET 5.779297 0.000000 0.000000
													CHANNELS 3 Xrotation Yrotation Zrotation
													JOINT LeftHandRing4
													{
														OFFSET 4.965698 0.000000 0.000000
														CHANNELS 3 Xrotation Yrotation Zrotation
														End Site
														{
															OFFSET 0.000000 0.000000 0.000000
														}
													}
												}
											}
										}
										JOINT LeftHandPinky1
										{
											OFFSET 20.037003 -1.530319 -10.950146
											CHANNELS 3 Xrotation Yrotation Zrotation
											JOINT LeftHandPinky2
											{
												OFFSET 5.254700 0.000000 0.000000
												CHANNELS 3 Xrotation Yrotation Zrotation
												JOINT LeftHandPinky3
												{
													OFFSET 4.810204 0.000000 0.000000
													CHANNELS 3 Xrotation Yrotation Zrotation
													JOINT LeftHandPinky4
													{
														OFFSET 3.647202 0.000000 0.000000
														CHANNELS 3 Xrotation Yrotation Zrotation
														End Site
														{
															OFFSET 0.000000 0.000000 0.000000
														}
													}
												}
											}
										}
									}
								}
							}
						}
					}
					JOINT RightShoulder
					{
						OFFSET -7.570500 7.247704 -3.868750
						CHANNELS 3 Xrotation Yrotation Zrotation
						JOINT RightShoulder_split
						{
							OFFSET -7.570500 7.247704 -3.868750
							CHANNELS 3 Xrotation Yrotation Zrotation
							JOINT RightArm
							{
								OFFSET -9.308998 -2.777710 0.208500
								CHANNELS 3 Xrotation Yrotation Zrotation
								JOINT RightForeArm
								{
									OFFSET -29.972300 0.000000 0.000000
									CHANNELS 3 Xrotation Yrotation Zrotation
									JOINT RightHand
									{
										OFFSET -26.026505 0.000000 0.000000
										CHANNELS 3 Xrotation Yrotation Zrotation
										JOINT RightHandThumb1
										{
											OFFSET -12.240601 -7.148026 9.207092
											CHANNELS 3 Xrotation Yrotation Zrotation
											JOINT RightHandThumb2
											{
												OFFSET -4.138618 -2.389435 2.389433
												CHANNELS 3 Xrotation Yrotation Zrotation
												JOINT RightHandThumb3
												{
													OFFSET -2.726974 -1.574417 1.574421
													CHANNELS 3 Xrotation Yrotation Zrotation
													JOINT RightHandThumb4
													{
														OFFSET -3.941010 -2.275345 2.275343
														CHANNELS 3 Xrotation Yrotation Zrotation
														End Site
														{
															OFFSET 0.000000 0.000000 0.000000
														}
													}
												}
											}
										}
										JOINT RightHandIndex1
										{
											OFFSET -24.424698 -1.985657 5.953444
											CHANNELS 3 Xrotation Yrotation Zrotation
											JOINT RightHandIndex2
											{
												OFFSET -6.426697 0.000000 0.000000
												CHANNELS 3 Xrotation Yrotation Zrotation
												JOINT RightHandIndex3
												{
													OFFSET -5.337898 0.000000 0.000000
													CHANNELS 3 Xrotation Yrotation Zrotation
													JOINT RightHandIndex4
													{
														OFFSET -4.409401 0.000000 0.000000
														CHANNELS 3 Xrotation Yrotation Zrotation
														End Site
														{
															OFFSET 0.000000 0.000000 0.000000
														}
													}
												}
											}
										}
										JOINT RightHandMiddle1
										{
											OFFSET -23.810097 0.000000 0.000000
											CHANNELS 3 Xrotation Yrotation Zrotation
											JOINT RightHandMiddle2
											{
												OFFSET -7.176498 0.000000 0.000000
												CHANNELS 3 Xrotation Yrotation Zrotation
												JOINT RightHandMiddle3
												{
													OFFSET -6.774902 0.000000 0.000000
													CHANNELS 3 Xrotation Yrotation Zrotation
													JOINT RightHandMiddle4
													{
														OFFSET -5.403328 0.000000 0.000000
														CHANNELS 3 Xrotation Yrotation Zrotation
														End Site
														{
															OFFSET 0.000000 0.000000 0.000000
														}
													}
												}
											}
										}
										JOINT RightHandRing1
										{
											OFFSET -22.908302 -0.839325 -6.020576
											CHANNELS 3 Xrotation Yrotation Zrotation
											JOINT RightHandRing2
											{
												OFFSET -6.337502 0.000000 0.000000
												CHANNELS 3 Xrotation Yrotation Zrotation
												JOINT RightHandRing3
												{
													OFFSET -5.779297 0.000000 0.000000
													CHANNELS 3 Xrotation Yrotation Zrotation
													JOINT RightHandRing4
													{
														OFFSET -4.965698 0.000000 0.000000
														CHANNELS 3 Xrotation Yrotation Zrotation
														End Site
														{
															OFFSET 0.000000 0.000000 0.000000
														}
													}
												}
											}
										}
										JOINT RightHandPinky1
										{
											OFFSET -20.037003 -1.530334 -10.950259
											CHANNELS 3 Xrotation Yrotation Zrotation
											JOINT RightHandPinky2
											{
												OFFSET -5.254700 0.000000 0.000000
												CHANNELS 3 Xrotation Yrotation Zrotation
												JOINT RightHandPinky3
												{
													OFFSET -4.810204 0.000000 0.000000
													CHANNELS 3 Xrotation Yrotation Zrotation
													JOINT RightHandPinky4
													{
														OFFSET -3.647202 0.000000 0.000000
														CHANNELS 3 Xrotation Yrotation Zrotation
														End Site
														{
															OFFSET 0.000000 0.000000 0.000000
														}
													}
												}
											}
										}
									}
								}
							}
						}
					}
				}
			}
		}
	}
	JOINT LeftUpLeg
	{
		OFFSET 15.427100 -6.655098 0.678600
		CHANNELS 3 Xrotation Yrotation Zrotation
		JOINT LeftLeg
		{
			OFFSET 4.081073 -39.591068 13.024000
			CHANNELS 3 Xrotation Yrotation Zrotation
			JOINT LeftFoot
			{
				OFFSET -4.081074 -37.707932 -15.979700
				CHANNELS 3 Xrotation Yrotation Zrotation
				JOINT LeftToeBase
				{
					OFFSET 5.346399 -15.068900 20.645000
					CHANNELS 3 Xrotation Yrotation Zrotation
					JOINT LeftToe_End
					{
						OFFSET 2.754700 0.931300 11.300900
						CHANNELS 3 Xrotation Yrotation Zrotation
						End Site
						{
							OFFSET 0.000000 0.000000 0.000000
						}
					}
				}
			}
		}
	}
	JOINT RightUpLeg
	{
		OFFSET -15.569500 -6.655098 0.678600
		CHANNELS 3 Xrotation Yrotation Zrotation
		JOINT RightLeg
		{
			OFFSET -4.081825 -39.591045 13.023800
			CHANNELS 3 Xrotation Yrotation Zrotation
			JOINT RightFoot
			{
				OFFSET 4.081824 -37.707954 -15.979600
				CHANNELS 3 Xrotation Yrotation Zrotation
				JOINT RightToeBase
				{
					OFFSET -5.346400 -15.068900 20.645000
					CHANNELS 3 Xrotation Yrotation Zrotation
					JOINT RightToe_End
					{
						OFFSET -2.754700 0.931300 11.300900
						CHANNELS 3 Xrotation Yrotation Zrotation
						End Site
						{
							OFFSET 0.000000 0.000000 0.000000
						}
					}
				}
			}
		}
	}
}
MOTION
Frames: 5
Frame Time: 0.016667
-1.296602 91.429680 -3.122115 5.083220 -14.312370 10.555233 1.811480 4.923851 0.174107 5.177707 9.319219 2.133655 0.000000 0.000000 0.000000 5.034874 9.321729 2.400944 -1.845152 -1.005206 -1.922208 -8.332132 -2.916353 -12.042400 0.000000 0.000000 0.000000 0.683995 -0.873507 -14.226759 0.000000 0.000000 0.000000 -18.744845 -25.288444 -72.307743 0.000073 -68.920707 0.000077 -36.056589 9.257043 42.116149 -10.930933 -6.748085 10.337284 -18.089394 8.879778 2.392686 5.698795 5.288814 3.340166 -0.000001 -0.000001 0.000003 5.890359 8.200077 -88.621807 6.193162 5.841085 -93.357669 1.839130 4.262514 -46.661486 0.000000 -0.000000 -0.000002 7.765549 7.904027 -107.399472 4.299849 5.642385 -74.600801 2.407294 4.733124 -53.896961 0.000001 0.000002 -0.000000 7.314742 8.035633 -105.794972 3.608021 5.405421 -67.422908 3.239275 5.237608 -63.448776 0.000001 -0.000000 0.000002 10.390428 6.780218 -113.877114 1.747956 4.174847 -45.422182 1.832419 4.256179 -46.570982 0.000000 -0.000001 -0.000000 -0.133329 13.109084 18.148154 0.000000 0.000000 0.000000 -38.704974 64.841411 69.860295 0.000013 37.971443 -0.000017 -24.338590 -7.627334 -15.970123 17.912434 17.120590 -32.483553 12.694449 -52.014213 20.210852 2.934346 3.697806 -26.040889 -0.000000 0.000002 0.000001 0.276353 -8.899010 1.740155 5.888276 -4.491830 105.344214 2.534114 -4.146026 62.853648 0.000000 0.000001 0.000000 4.166151 -8.600794 42.153213 7.050160 -3.996511 120.947132 0.504907 -2.110849 26.901277 0.000001 0.000000 0.000002 -0.361097 -4.549277 57.044227 4.703206 -4.656948 90.567093 2.413048 -4.081853 61.166045 0.000000 0.000001 -0.000000 -5.324597 -0.292063 51.887301 3.524514 -4.517638 75.909254 1.722456 -3.617751 50.907879 0.000001 0.000000 -0.000002 -30.875792 -7.838016 -14.159434 10.199314 -4.029077 -6.405196 16.718169 -27.929147 6.333698 0.000010 -0.675689 -0.000004 0.000000 -0.000000 -0.000000 6.893500 -17.073205 -11.131824 28.608181 4.031015 -5.835534 -14.901803 -0.937217 9.149986 -28.531756 0.030773 -0.621025 0.000000 0.000002 0.000000 
-1.281096 91.366501 -3.047643 5.135722 -14.387886 10.261015 1.867163 5.027572 0.312433 5.160749 9.282535 2.112638 0.000000 0.000000 0.000000 5.022810 9.284440 2.374296 -2.064544 -1.057513 -1.877894 -8.628699 -3.003489 -11.986658 -0.000000 -0.000001 -0.000000 0.681854 -0.881333 -14.238711 0.000000 0.000000 0.000000 -18.870674 -25.494070 -72.321813 -0.000052 -68.978012 -0.000059 -35.909716 8.762850 42.291848 -10.930944 -6.748097 10.337264 -18.089392 8.879782 2.392687 5.669422 5.325172 3.432859 0.000001 -0.000003 0.000003 5.684036 8.194809 -88.397019 6.193764 5.841051 -93.363707 1.842320 4.265503 -46.704325 -0.000000 -0.000000 -0.000001 7.765539 7.904011 -107.399486 4.299851 5.642380 -74.600788 2.407292 4.733127 -53.896961 0.000000 0.000002 0.000002 7.314741 8.035632 -105.794979 3.608024 5.405416 -67.422894 3.239278 5.237601 -63.448783 -0.000000 -0.000001 0.000001 10.390423 6.780220 -113.877121 1.747961 4.174849 -45.422172 1.832424 4.256182 -46.570975 0.000000 -0.000004 -0.000000 -0.124895 13.084219 18.116887 0.000000 0.000000 0.000000 -38.677951 64.587683 69.785040 0.000002 38.471601 0.000004 -23.446962 -7.328092 -15.998980 17.912415 17.120598 -32.483550 12.694450 -52.014213 20.210854 2.934344 3.697811 -26.040889 -0.000001 -0.000001 0.000001 0.276353 -8.899011 1.740172 5.888274 -4.491832 105.344207 2.534124 -4.146057 62.853621 -0.000001 -0.000002 -0.000001 4.166148 -8.600809 42.153223 7.050160 -3.996511 120.947132 0.504909 -2.110852 26.901284 0.000000 0.000000 -0.000005 -0.361093 -4.549282 57.044241 4.703205 -4.656947 90.567093 2.413046 -4.081868 61.166038 0.000000 -0.000001 -0.000001 -5.324605 -0.292074 51.887308 3.524514 -4.517638 75.909261 1.722439 -3.617750 50.907862 0.000000 -0.000000 -0.000001 -31.041451 -7.637532 -13.892789 10.690881 -4.241793 -6.442075 16.535531 -27.937518 6.475783 -0.000066 -0.658339 -0.000001 -0.000000 -0.000000 -0.000000 7.314568 -17.139233 -10.785562 28.075817 4.184812 -5.700982 -15.263741 -0.861635 8.961888 -27.997019 0.028649 -0.627745 0.000000 0.000000 0.000000 
-1.265709 91.314331 -2.976023 5.191824 -14.460373 9.965737 1.920792 5.135635 0.458735 5.142804 9.248733 2.093732 0.000000 0.000000 0.000000 5.009903 9.249995 2.349701 -2.293333 -1.110686 -1.843282 -8.922893 -3.110394 -11.930531 0.000000 0.000000 -0.000000 0.679169 -0.891286 -14.251472 0.000000 0.000000 0.000000 -19.028040 -25.737572 -72.345951 -0.000083 -69.038671 -0.000077 -35.733487 8.163537 42.501569 -10.930942 -6.748078 10.337268 -18.089396 8.879783 2.392696 5.634734 5.367955 3.542335 -0.000000 0.000001 -0.000001 5.440050 8.186713 -88.133380 6.194499 5.841002 -93.370851 1.846086 4.269055 -46.755018 -0.000000 0.000001 -0.000001 7.765554 7.904042 -107.399493 4.299881 5.642387 -74.600801 2.407301 4.733128 -53.896982 0.000000 0.000000 0.000001 7.314735 8.035643 -105.794993 3.608015 5.405425 -67.422894 3.239296 5.237613 -63.448769 0.000001 0.000003 0.000002 10.390416 6.780220 -113.877135 1.747962 4.174843 -45.422179 1.832409 4.256177 -46.570975 0.000000 0.000002 0.000000 -0.114677 13.054872 18.076908 0.000000 0.000000 0.000000 -38.651815 64.286342 69.702832 -0.000026 39.069683 0.000020 -22.411418 -6.958794 -16.094361 17.912408 17.120593 -32.483540 12.694450 -52.014213 20.210852 2.934344 3.697808 -26.040889 -0.000001 -0.000001 0.000000 0.276342 -8.899017 1.740175 5.888276 -4.491833 105.344207 2.534122 -4.146050 62.853627 0.000001 0.000000 -0.000001 4.166163 -8.600794 42.153219 7.050161 -3.996512 120.947132 0.504909 -2.110852 26.901289 0.000001 -0.000000 0.000000 -0.361108 -4.549282 57.044234 4.703206 -4.656947 90.567093 2.413039 -4.081866 61.166024 0.000000 0.000001 -0.000001 -5.324601 -0.292064 51.887308 3.524515 -4.517638 75.909261 1.722428 -3.617747 50.907866 -0.000000 -0.000000 -0.000000 -31.198805 -7.463676 -13.618623 11.143658 -4.437036 -6.480018 16.368552 -27.946218 6.610942 -0.000040 -0.610967 -0.000004 0.000000 0.000000 0.000000 7.758252 -17.199571 -10.423117 27.492495 4.354397 -5.563554 -15.617473 -0.799700 8.762715 -27.440341 0.026323 -0.633718 -0.000000 0.000001 0.000000 
-1.250423 91.271538 -2.907316 5.250565 -14.530568 9.671018 1.972581 5.247546 0.610917 5.123979 9.217472 2.076672 0.000000 0.000000 0.000000 4.996254 9.218044 2.326918 -2.529574 -1.164599 -1.816359 -9.215293 -3.233273 -11.874455 0.000000 -0.000000 0.000000 0.676444 -0.901442 -14.262933 0.000000 0.000000 0.000000 -19.187212 -25.974199 -72.374945 -0.000032 -69.092677 -0.000047 -35.558791 7.571555 42.707588 -10.930945 -6.748086 10.337258 -18.089394 8.879783 2.392689 5.600980 5.409397 3.648632 0.000002 0.000003 0.000002 5.203250 8.176876 -87.878942 6.195220 5.840971 -93.377825 1.849757 4.272482 -46.804220 -0.000001 -0.000003 -0.000002 7.765554 7.904026 -107.399486 4.299867 5.642377 -74.600815 2.407298 4.733125 -53.896978 -0.000000 0.000002 -0.000004 7.314731 8.035621 -105.794979 3.608031 5.405405 -67.422894 3.239282 5.237603 -63.448776 0.000000 0.000001 0.000001 10.390424 6.780206 -113.877121 1.747962 4.174847 -45.422155 1.832410 4.256172 -46.570999 0.000000 -0.000002 -0.000001 -0.104596 13.026406 18.035941 0.000000 0.000000 0.000000 -38.631017 63.992869 69.627932 -0.000020 39.655382 0.000021 -21.415124 -6.603393 -16.217258 17.912408 17.120612 -32.483540 12.694450 -52.014209 20.210854 2.934342 3.697803 -26.040887 -0.000001 0.000001 -0.000001 0.276342 -8.899012 1.740161 5.888279 -4.491834 105.344214 2.534127 -4.146061 62.853627 -0.000002 -0.000001 -0.000003 4.166150 -8.600789 42.153206 7.050159 -3.996511 120.947132 0.504892 -2.110872 26.901284 0.000000 0.000001 -0.000002 -0.361109 -4.549283 57.044227 4.703207 -4.656948 90.567093 2.413055 -4.081863 61.166031 -0.000000 0.000001 -0.000002 -5.324599 -0.292057 51.887298 3.524514 -4.517638 75.909261 1.722450 -3.617754 50.907883 0.000000 -0.000000 0.000000 -31.345804 -7.314280 -13.330778 11.555061 -4.615826 -6.536402 16.223591 -27.953649 6.749839 -0.000084 -0.535131 -0.000012 0.000000 0.000000 0.000000 8.217729 -17.245768 -10.060511 26.869206 4.533910 -5.403342 -15.954067 -0.748248 8.550156 -26.875848 0.023917 -0.638400 -0.000000 0.000001 0.000000 
-1.235278 91.237427 -2.837742 5.310953 -14.599014 9.374181 2.022358 5.362720 0.771281 5.104401 9.188402 2.061217 0.000000 0.000000 0.000000 4.981970 9.188251 2.305710 -2.771690 -1.219054 -1.795571 -9.506122 -3.368514 -11.818343 0.000000 0.000000 -0.000000 0.673632 -0.911965 -14.273165 0.000000 0.000000 0.000000 -19.350590 -26.206749 -72.409711 0.000044 -69.140229 0.000053 -35.383713 6.979085 42.912111 -10.930922 -6.748074 10.337263 -18.089392 8.879784 2.392694 5.567776 5.449942 3.753082 0.000001 0.000003 -0.000002 4.971065 8.165362 -87.630822 6.195886 5.840934 -93.384614 1.853356 4.275863 -46.852475 -0.000000 -0.000002 -0.000001 7.765557 7.904034 -107.399500 4.299856 5.642385 -74.600801 2.407289 4.733114 -53.896975 -0.000001 -0.000001 0.000001 7.314740 8.035625 -105.794986 3.608018 5.405422 -67.422908 3.239287 5.237620 -63.448776 0.000001 0.000001 -0.000003 10.390441 6.780234 -113.877135 1.747962 4.174850 -45.422168 1.832415 4.256170 -46.570986 -0.000000 0.000001 -0.000001 -0.094518 12.998464 17.993322 0.000000 0.000000 0.000000 -38.614877 63.703644 69.559275 -0.000029 40.235873 0.000033 -20.444295 -6.270874 -16.344400 17.912432 17.120598 -32.483574 12.694455 -52.014216 20.210861 2.934345 3.697808 -26.040890 -0.000000 -0.000002 -0.000001 0.276373 -8.899006 1.740171 5.888276 -4.491828 105.344207 2.534100 -4.146036 62.853621 0.000001 0.000000 0.000002 4.166160 -8.600787 42.153206 7.050161 -3.996512 120.947132 0.504898 -2.110843 26.901277 0.000001 0.000001 -0.000001 -0.361086 -4.549271 57.044230 4.703206 -4.656948 90.567093 2.413050 -4.081859 61.166024 0.000000 0.000000 -0.000003 -5.324588 -0.292063 51.887311 3.524514 -4.517638 75.909254 1.722458 -3.617754 50.907900 -0.000000 -0.000000 0.000002 -31.487326 -7.185962 -13.047181 11.946842 -4.779298 -6.575934 16.079560 -27.963247 6.875586 0.000029 -0.432389 0.000003 -0.000000 0.000000 0.000000 8.692663 -17.295753 -9.677995 26.208469 4.723929 -5.260843 -16.275043 -0.704770 8.341633 -26.304414 0.021429 -0.641636 -0.000000 -0.000000 0.000000 
